<svg xmlns="http://www.w3.org/2000/svg" width="50" height="50" viewBox="0 0 13.229175 13.229175" version="1.1"><defs><linearGradient id="linearGradient844"><stop style="stop-color:#4410BF" offset="0"/><stop style="stop-color:#090413" offset="1"/></linearGradient><linearGradient inkscape:collect="always" xlink:href="#linearGradient844" id="linearGradient846" x1="6.6145835" y1="0" x2="6.6145835" y2="13.229167" gradientUnits="userSpaceOnUse" /></defs><g><rect style="fill:url(#linearGradient846);stroke-width:1.86409;stroke-linecap:round;stroke-linejoin:round;fill-opacity:1" id="rect838" width="13.229167" height="13.229167" x="1.3877788e-17" y="0" /><g style="font-size:42.1035px;line-height:1.25;font-family:Poppins;-inkscape-font-specification:Poppins;text-align:center;text-anchor:middle;fill:#eeeaf9;fill-opacity:1;stroke-width:2.10517" transform="matrix(0.3332065,0,0,0.3332065,10.83885,-61.473361)"><path d="m -14.004416,219.03571 -6.483939,-11.45216 h -2.778831 v 11.45216 h -5.89449 v -29.38825 h 11.031117 q 3.410384,0 5.810283,1.221 2.3998998,1.1789 3.5787978,3.24197 1.2210015,2.02097 1.2210015,4.54718 0,2.90514 -1.68414,5.26294 -1.6841403,2.31569 -5.0103163,3.19986 l 7.0312843,11.9153 z m -9.26277,-15.87302 h 4.92611 q 2.399899,0 3.578797,-1.1368 1.178898,-1.1789 1.178898,-3.24197 0,-2.02097 -1.178898,-3.11566 -1.178898,-1.13679 -3.578797,-1.13679 h -4.92611 z" style="font-style:normal;font-variant:normal;font-weight:600;font-stretch:normal;font-family:Poppins;-inkscape-font-specification:'Poppins Semi-Bold';fill:#eeeaf9;fill-opacity:1;stroke-width:2.10517"/></g><path style="fill:#eeeaf9;fill-opacity:1;stroke:none;stroke-width:0.0881608px;stroke-linecap:butt;stroke-linejoin:miter;stroke-opacity:1" d="M 12.107177,11.510762 H 10.016833 L 7.6739605,7.5405053 H 9.946686 Z"/><path style="fill:#eeeaf9;fill-opacity:1;stroke:none;stroke-width:0.0721342px;stroke-linecap:butt;stroke-linejoin:miter;stroke-opacity:1" d="M 10.31504,8.8181776 9.559167,10.341964 5.7365685,10.377374 6.6788795,8.7883626 Z"/><g style="font-size:42.1035px;line-height:1.25;font-family:Poppins;-inkscape-font-specification:Poppins;text-align:center;text-anchor:middle;fill:#eeeaf9;fill-opacity:1;stroke-width:2.10517" transform="matrix(0.3332065,0,0,0.3332065,10.83885,-61.473361)"><path d="m -14.004416,219.03571 -6.483939,-11.45216 h -2.778831 v 11.45216 h -5.89449 v -29.38825 h 11.031117 q 3.410384,0 5.810283,1.221 2.3998998,1.1789 3.5787978,3.24197 1.2210015,2.02097 1.2210015,4.54718 0,2.90514 -1.68414,5.26294 -1.6841403,2.31569 -5.0103163,3.19986 l 7.0312843,11.9153 z m -9.26277,-15.87302 h 4.92611 q 2.399899,0 3.578797,-1.1368 1.178898,-1.1789 1.178898,-3.24197 0,-2.02097 -1.178898,-3.11566 -1.178898,-1.13679 -3.578797,-1.13679 h -4.92611 z" style="font-style:normal;font-variant:normal;font-weight:600;font-stretch:normal;font-family:Poppins;-inkscape-font-specification:'Poppins Semi-Bold';fill:#eeeaf9;fill-opacity:1;stroke-width:2.10517"/></g></g></svg>