<?xml version="1.0" standalone="no"?>
<!DOCTYPE svg PUBLIC "-//W3C//DTD SVG 20010904//EN"
 "http://www.w3.org/TR/2001/REC-SVG-20010904/DTD/svg10.dtd">
<svg version="1.0" xmlns="http://www.w3.org/2000/svg"
 width="700.000000pt" height="700.000000pt" viewBox="0 0 700.000000 700.000000"
 preserveAspectRatio="xMidYMid meet">
<metadata>
Created by potrace 1.14, written by Peter Selinger 2001-2017
</metadata>
<g transform="translate(0.000000,700.000000) scale(0.100000,-0.100000)"
fill="#000000" stroke="none">
<path d="M0 3500 l0 -3500 3500 0 3500 0 0 3500 0 3500 -3500 0 -3500 0 0
-3500z m2944 2567 c347 -61 583 -149 817 -305 186 -125 324 -272 438 -465 354
-604 254 -1412 -234 -1893 -155 -151 -369 -277 -605 -355 l-128 -42 48 -81
c26 -45 113 -191 193 -326 l144 -245 412 -9 c227 -4 415 -6 417 -3 3 3 -82
154 -189 336 l-196 331 602 0 602 -1 565 -1040 c311 -572 567 -1044 568 -1050
2 -6 -201 -8 -548 -7 l-552 3 -175 295 c-95 162 -177 300 -181 307 -6 10 -100
11 -418 5 l-412 -7 127 -215 c70 -118 150 -254 179 -302 l52 -88 -603 0 -603
0 -570 1008 -571 1007 -244 0 -244 0 -3 -1007 -2 -1008 -520 0 -520 0 0 2590
0 2591 1128 -4 c1009 -3 1137 -5 1226 -20z"/>
<path d="M1637 5224 c-4 -4 -7 -346 -7 -761 l0 -753 483 0 c610 0 682 8 864
96 206 99 327 291 355 564 28 263 -39 494 -184 640 -100 100 -206 155 -373
193 -83 18 -132 20 -610 24 -286 3 -523 1 -528 -3z"/>
</g>
</svg>
